<svg viewBox="0 0 400 300" xmlns="http://www.w3.org/2000/svg"><path d="m285.6 67.89c31.2 10.64 60.45 39.87 61.82 77.54 1.38 38-16.33 73.57-67.52 91.31-52.25 18.11-185.46 22.72-212.76-28.08s-21.73-115.89 34-138.84c39.02-16.08 123.52-22.7 184.46-1.93z" fill="#e6e6e6" opacity=".3"/><path d="m215.91 98.66 15.35 6.79a29.77 29.77 0 0 0 33.52-6.61l15.12-15.76 5.76 4-12.66 19.12a51.08 51.08 0 0 1 -50.14 22.29l-22.33-3.34z" fill="#68e1fd"/><path d="m215.91 98.66 15.35 6.79a29.77 29.77 0 0 0 33.52-6.61l15.12-15.76 5.76 4-12.66 19.12a51.08 51.08 0 0 1 -50.14 22.29l-22.33-3.34z" fill="#fff" opacity=".46"/><path d="m285.66 87s10.59-1.41 7.72-4.38-13.48.43-13.48.43z" fill="#f4a28c"/><path d="m297.21 48.11h-20.65s-2.19 16.34 10.33 16.34c0 0 11.94.39 10.32-16.34z" fill="#ffd200"/><ellipse cx="286.87" cy="48.31" fill="#ffd200" rx="10.34" ry="2.95"/><ellipse cx="286.87" cy="48.31" opacity=".08" rx="10.34" ry="2.95"/><path d="m282.05 71.4h10.37v10.37h-10.37z" fill="#24285b" transform="matrix(-1 0 0 -1 574.47 153.17)"/><path d="m285.66 61.22h2.21v10.18h-2.21z" fill="#ffd200" transform="matrix(-1 0 0 -1 573.53 132.62)"/><path d="m295.73 54.07h3.7a4 4 0 0 1 4 4 4 4 0 0 1 -4 4h-10.54" fill="none" stroke="#ffd200" stroke-miterlimit="10" stroke-width="3"/><path d="m278 54.07h-3.7a4 4 0 0 0 -4 4 4 4 0 0 0 4 4h10.54" fill="none" stroke="#ffd200" stroke-miterlimit="10" stroke-width="3"/><circle cx="290.32" cy="56.99" fill="#fff" opacity=".46" r="3.56"/><path d="m193.9 81.55a32 32 0 0 1 2.84 8 2.57 2.57 0 0 1 -2.19 2.9 5.66 5.66 0 0 1 -5.71-2.26l-3.11-3.53a4.59 4.59 0 0 1 0-5.3c1.87-3.02 6.88-2.64 8.17.19z" fill="#f4a28c"/><path d="m187.29 85.33-.74 16.7 9.24-.25-3.17-12.05z" fill="#f4a28c"/><path d="m195.23 84.49 2.06 1.27a.82.82 0 0 1 0 1.38l-1.67 1.08z" fill="#f4a28c"/><path d="m193.37 92.49a6 6 0 0 1 -3.17-1.43s.47 3 4.15 5.64z" fill="#ce8172" opacity=".31"/><path d="m214.08 250.12s1.36 3.77 4.76 4.06 4.3 3.61 1.24 4.48-11-3.07-11-3.07l.22-4.91z" fill="#68e1fd"/><path d="m168 250.12s-1.36 3.77-4.77 4.06-4.29 3.61-1.23 4.48 11-3.07 11-3.07l-.22-4.91z" fill="#68e1fd"/><path d="m208.51 97.14a117.89 117.89 0 0 0 -44.07 9.43 17 17 0 0 0 -8.58 23.25l24 47.83 44.44-2.65s8.09-26.88 6.47-57.29a21.86 21.86 0 0 0 -22.26-20.57z" fill="#68e1fd"/><path d="m179.84 177.65-13.29 73.15h6.65l16.65-39.71a68.88 68.88 0 0 1 29.56-33.3l4.89-2.79z" fill="#24285b"/><path d="m224.3 175-6.86 75.78h-8.83s2.06-57-13.87-69.16z" fill="#24285b"/><path d="m176.89 110.08s11.36 7.3 7.78 29.75a45 45 0 0 0 10.75 36.9l-15.58.92s-10-20.83-12.66-25.25 9.71-42.32 9.71-42.32z" opacity=".08"/><path d="m179.2 116.88c.05-10.17-12.66-14.86-19.46-7.3a42.18 42.18 0 0 0 -10.83 23.23c-2.7 22.33.28 71.08.28 71.08h8.08s5.46-48.72 17.37-71.08c3.36-6.23 4.54-11.53 4.56-15.93z" fill="#68e1fd"/><path d="m179.2 116.88c.05-10.17-12.66-14.86-19.46-7.3a42.18 42.18 0 0 0 -10.83 23.23c-2.7 22.33.28 71.08.28 71.08h8.08s5.46-48.72 17.37-71.08c3.36-6.23 4.54-11.53 4.56-15.93z" fill="#fff" opacity=".46"/><path d="m146.31 218v-3.45a4.72 4.72 0 0 1 4.69-4.75h4.42a4.72 4.72 0 0 1 4.73 4.72v3.7" fill="none" stroke="#24285b" stroke-miterlimit="10" stroke-width="2"/><path d="m136.92 216.61h33.71v21.96h-33.71z" fill="#ffd200"/><path d="m136.92 226.9s12.63 10.86 33.71 7.66v4h-33.71z" opacity=".08"/><path d="m150.59 203.89s-2.43 8.05.76 8.05 7 1.53 4.6-8.05z" fill="#f4a28c"/><path d="m186.94 91.43 3.19-1.71.32-1.7a4 4 0 0 0 0-4.48s6.12-3 4.68-5.53-5.95-6-10.33-2.72-6.59 9.13 2.14 16.14z" fill="#24285b"/><path d="m190.55 87.66s-.78-1.8-2.09-1.1-.19 3.31 1.76 2.79z" fill="#f4a28c"/><path d="m183.8 100.23a71 71 0 0 1 16.68-2.67s7.78 31.06 1.66 56.09c0 0-8.72-31.52-18.34-53.42z" fill="#fff"/><path d="m183.8 100.23s-.3-3.78 2.38-3.9a14.4 14.4 0 0 1 4.37.37s7.84-6.14 9.93.86c0 0-11.21 1.25-16.68 2.67z" fill="#68e1fd"/><path d="m183.8 100.23s-.3-3.78 2.38-3.9a14.4 14.4 0 0 1 4.37.37s7.84-6.14 9.93.86c0 0-11.21 1.25-16.68 2.67z" fill="#fff" opacity=".77"/><path d="m189.28 99.06s-.89-3 1-3.32 3.55-1.57 3.95 2.21-3.43 4.18-4.95 1.11z" fill="#24285b"/><path d="m190.51 100.55s5.88 20.83 5.94 34.22l5.69 18.88a83.59 83.59 0 0 0 2.35-20.56s-6.08-27.4-10.35-33.8z" fill="#24285b"/><g fill="#e6e6e6"><path d="m230.03 72.93h15.24v7.3h-15.24z" transform="matrix(.86339555 -.50452762 .50452762 .86339555 -6.17 130.37)"/><path d="m289.74 147.26h15.24v7.3h-15.24z" transform="matrix(.93770715 .34742668 -.34742668 .93770715 70.95 -93.91)"/><path d="m251.21 198.24h15.24v7.3h-15.24z" transform="matrix(.71970342 -.69428163 .69428163 .71970342 -67.62 236.32)"/><path d="m118.04 93.05h15.24v7.3h-15.24z" transform="matrix(-.78477637 -.61977903 .61977903 -.78477637 164.33 250.48)"/><path d="m90.57 167.94h15.24v7.3h-15.24z" transform="matrix(-.43742969 .89925261 -.89925261 -.43742969 295.44 158.35)"/></g></svg>