<svg viewBox="0 0 500 500" xmlns="http://www.w3.org/2000/svg"><path d="m218 459.6h-106.33a.43.43 0 0 1 0-.86h106.33a.43.43 0 0 1 0 .86z" fill="#6b81be"/><path d="m210.67 464.93h-42.34a.43.43 0 0 1 0-.86h42.33a.43.43 0 0 1 .01.86z" fill="#6b81be"/><path d="m457.33 459.6h-106.33a.43.43 0 0 1 0-.86h106.33a.43.43 0 0 1 0 .86z" fill="#6b81be"/><path d="m408.67 464.93h-42.34a.43.43 0 0 1 0-.86h42.33a.43.43 0 0 1 .01.86z" fill="#6b81be"/><path d="m75.5 455s-.5-16 2.25-22 5.75-24 11.25-30.25 14-24.75 16-44.5 6-48.5 17-48.25 8.75 26.75 13 37.75 9.5 15 9 34 18.75 24.5 20.5 42.25l2.25 31z" fill="#6b81be"/><path d="m87 455s-.25-13.5 5.75-26 3-24.25 7-34.75-3.24-30.39 5.5-38.45 16.5 9.94 17.5 26.7 10 17.25 11.5 32.25 9.25 15.77 14.5 24.76 4.5 15.49 4.5 15.49z" fill="#9ab3da"/><path d="m346.25 464.5h-122.25l10-24.25s1.26-5.35 2.36-10.44a82 82 0 0 0 1.64-8.81 9.81 9.81 0 0 1 1.43-2.85c2.84-4.64 9.33-13.68 13.88-19.93 2.85-3.9 4.94-6.72 4.94-6.72l16.88-.57c8.88-.31 18.18-1.25 20.14-1.29h.32a106.54 106.54 0 0 0 13.84-3.19c3.52-1.07 6.32-1.94 6.32-1.94l12.75 5.75s-.13 1.15-.34 3l-1.16 10.32c-.64 5.77-1.25 11.32-1.25 11.67 0 .75 20.5 49.25 20.5 49.25z" fill="#9ab3da"/><path d="m293.83 464.5h-14.05c-1-5.59-2.34-12.31-3-14.25-1.25-3.5-10.75-11.5-13.75-12.75-2.7-1.13-22.25-6.31-26.64-7.69a82 82 0 0 0 1.61-8.81 9.81 9.81 0 0 1 1.43-2.85c7.47 1.4 21.31 4.13 26.32 6.1 7 2.75 19.25 15.75 22 20 1.63 2.52 4.25 12.53 6.08 20.25z" fill="#6b81be"/><path d="m328.16 393.21-1.16 10.37a101.91 101.91 0 0 1 -22.75-7.58c-3.14-1.54-6.27-4.18-9-6.36h.32a106.54 106.54 0 0 0 13.84-3.19 48.62 48.62 0 0 0 18.75 6.76z" fill="#6b81be"/><path d="m329.13 464.5h-13.13c-3.66-10.87-9.79-28.08-13.46-33.25-5.5-7.75-21.25-23.5-28.5-26.75-4.65-2.08-14.34-4.68-20.69-6.28 2.85-3.9 4.94-6.72 4.94-6.72l16.88-.57c8.79 2.73 18.34 6.4 22.37 10.32 8.25 8 20.25 24 23.25 32.75 1.74 5.19 5.54 19.62 8.34 30.5z" fill="#6b81be"/><path d="m120.16 111.05s-4.35 10-6.74 13.79.75 5.25 8.39-2.85 24.13-26.53 32.37-34.17 15.14-10.94 14.69-15-6.29 1.5-10.64 3.45-9.14 1.65-16 4-6.74 6.14-7 10.34-2.7 3.9-6.89 3-11.18 2.16-8.18 17.44z" fill="#9ab3da"/><path d="m246.53 98c2 2.32 31.19-26.58 43.94-37.7s27.4-19.8 30.38-24.41-11.94 2.44-14.65 3.26-5.15-3.26-13-1.36-6.24 8.14-7.6 9.49-10.58-.54-15.73 4.07-1.9 11.66-3 14.11-8.41 2.17-11.66 5.43-1.36 6 .27 10.85-11.93 12.72-8.95 16.26z" fill="#9ab3da"/><circle cx="344" cy="99" fill="#f68d88" r="14.25"/><path d="m334.88 199c-3 0 1.38-5.12 4.25-9.5s1.75-10.62 6.5-12.12 7.75-4.25 7.13-9.87 1.75-16.25 13.75-13.5c0 0 1.38-5.37 7.63-4.25s13.5-4.12 18.63-7.37 5.5-1.37 1.63 2.5-34.9 31.61-42.65 38.61-15.37 15.5-16.87 15.5z" fill="#9ab3da"/><path d="m368.58 397.5s16.75 25.58 13 61.67h-8.18s-12.57-28.92-4.82-61.67z" fill="#9ab3da"/><path d="m377.67 459.6a.43.43 0 0 1 -.42-.37l-7.17-48.5a.43.43 0 0 1 .36-.49.43.43 0 0 1 .49.36l7.17 48.5a.43.43 0 0 1 -.36.49h-.06z" fill="#6b81be"/><path d="m398.18 380.33s7.15 32.33-14.5 78.83h-8.19s0-37.33 22.69-78.83z" fill="#6b81be"/><path d="m379.76 459.6h-.1a.43.43 0 0 1 -.32-.52l14.46-62a.42.42 0 0 1 .52-.32.43.43 0 0 1 .32.52l-14.46 62a.43.43 0 0 1 -.42.32z" fill="#9ab3da"/><path d="m427.44 380.33s4.56 35.33-37.59 78.83h-8.19s5.74-45.16 45.78-78.83z" fill="#9ab3da"/><path d="m385.94 459.6a.44.44 0 0 1 -.2 0 .43.43 0 0 1 -.18-.58l32.62-62a.43.43 0 1 1 .76.4l-32.62 62a.43.43 0 0 1 -.38.18z" fill="#6b81be"/><path d="m395 459.17s10.83-15.83 19.67-16 2.83 9.33 2.83 9.33 6.18-3.17 10.09-2 0 5.67 0 5.67 10.25-2.33 6.25 3z" fill="#6b81be"/><path d="m429.71 438.25c-4 0-6.62 7.63-2.12 6.75s6.12-6.75 2.12-6.75z" fill="#6b81be"/><path d="m437 447.94c-2.71-.71-5.83 4-2.63 4.2s5.3-3.49 2.63-4.2z" fill="#6b81be"/><path d="m362.81 265.81s-3.62-6-9.56-9l-2.19 1.81s9 10.94 10.19 24z" fill="#9ab3da"/><path d="m393.25 253a85.74 85.74 0 0 0 -21 25c-1.23 10-2.32 19.76-3 27.3-1.92 23.7-15.25 148.18-15.25 148.18h-9.4s16.07-176.81 17.57-187.81 3.58-35.29 3.58-35.29l16.92-9.69s-2.34 6.64-3.6 11c-.6 2.06-2.39 13.5-4.31 27.48l13.12-13z" fill="#9ab3da"/><path d="m387.88 246.13s4.63.13 5.38 6.88c-.01-.01-6.2-.63-5.38-6.88z" fill="#6b81be"/><path d="m365.75 230.38s5.94 1.06 7.69.43 9.23-10.12 9.23-10.12z" fill="#6b81be"/><path d="m359.33 374.6h-.08a.43.43 0 0 1 -.35-.5c0-.21 3.83-21.57 4.16-30.28.25-6.77.12-26 0-36.29 0-3.22 0-5.7 0-6.86 0-3.24.82-9 1.77-15.59.54-3.74 1.09-7.61 1.57-11.5 1.32-10.73 3.48-39.16 3.5-39.45a.43.43 0 1 1 .86.06c0 .29-2.18 28.73-3.5 39.49-.48 3.9-1 7.77-1.57 11.51-.94 6.6-1.76 12.29-1.76 15.47v6.85c.08 10.32.21 29.54 0 36.33-.33 8.76-4.13 30.18-4.17 30.39a.43.43 0 0 1 -.43.37z" fill="#6b81be"/><path d="m351.38 398.05h-.06a.43.43 0 0 1 -.36-.49c0-.33 4.81-33.1 6.35-45.95s3.42-47.46 3.44-47.81a.44.44 0 0 1 .45-.41.43.43 0 0 1 .41.45c0 .35-1.9 35-3.45 47.86s-6.3 45.64-6.35 46a.43.43 0 0 1 -.43.35z" fill="#6b81be"/><path d="m353.33 452.57a.43.43 0 0 1 -.43-.41c-.07-1.31-1.65-32.3 0-41.57a186.24 186.24 0 0 0 2.5-23 .43.43 0 0 1 .34-.5.42.42 0 0 1 .5.33c.19.93-.84 14-2.5 23.33s0 41.06 0 41.38a.43.43 0 0 1 -.41.45z" fill="#6b81be"/><path d="m167.67 275-8.29 5.88s-6.71 21.79 43.29 21.13 81.08-29.58 76.21-51.62l-13.75-5.12z" fill="#404b7c"/><path d="m234.83 234.67s64 37.83 65.67 40 4.17 13.33 4.17 15.67-29.5 56.17-29.5 56.17-12.33-2.5-12.33-3 13.67-51.83 13.67-51.83-48.5-8.5-71-20.33-4.84-51.68 29.32-36.68z" fill="#6b81be"/><path d="m269.5 341.76h-.14a.43.43 0 0 1 -.27-.54l15.17-45.5a.43.43 0 0 1 .17-.22 40.89 40.89 0 0 0 4.79-3.53 51.78 51.78 0 0 0 -8 .15.43.43 0 0 1 -.44-.29.43.43 0 0 1 .17-.5c3-2 7.88-5.55 8.33-6.79-.47-.59-5.92-.37-10.71.24a.44.44 0 0 1 -.39-.16.43.43 0 0 1 -.07-.42c.4-1.07 1.33-4.08.84-5.17-1.18-1.27-30.71-13.43-50.27-21.28a.43.43 0 1 1 .32-.8c11.73 4.71 50 20.18 50.73 21.72.57 1.27-.18 3.91-.59 5.16 3-.35 9.83-1 10.82.21a.78.78 0 0 1 .12.78c-.54 1.49-5 4.71-7.34 6.32 4.57-.28 7.06-.17 7.44.34a.53.53 0 0 1 .07.52c-.34.86-3.92 3.27-5.2 4.12l-15.12 45.36a.43.43 0 0 1 -.43.28z" fill="#9ab3da"/><path d="m263.83 342.58-3.42 18.67s7.83 1.67 7.83 1.42 5.76-17.42 5.76-17.42z" fill="#ecbdbb"/><path d="m306.92 384.78c-.13 2.36-.42 4.22-.42 4.22l-27.61 1.8c-.58-2.43-1.6-4.44-3.39-4.13s-2.31 2.09-2.39 4.3l-16.19.95s-.3-1.89-.63-5c-.7-6.52-1.51-18.38.13-29a42.3 42.3 0 0 1 15.83.23 22.41 22.41 0 0 1 5.08 1.85s-2.25 7.58-2 8.33 10.42 5.42 15.17 6.25c.42.08.86.13 1.31.17 4.53.36 10-1.08 13.11.67 2.08 1.15 2.21 5.81 2 9.36z" fill="#f68d88"/><path d="m289.68 378.85c-1.46 0-17.07-5.22-19.47-7.24a1.09 1.09 0 0 1 -.47-.77c0-1 .94-6.46 1.73-10.82a.43.43 0 1 1 .84.15c-1.09 6-1.72 9.92-1.72 10.67.63 1.26 17.21 7.16 19 7.16 0 0 .22-.23.88-1.5a.43.43 0 1 1 .76.39c-.8 1.55-1.17 1.9-1.52 2h-.06z" fill="#ecbdbb"/><path d="m306.92 384.78c-.13 2.36-.42 4.22-.42 4.22l-27.61 1.8c-.58-2.43-1.6-4.44-3.39-4.13s-2.31 2.09-2.39 4.3l-16.19.95s-.3-1.89-.63-5z" fill="#6b81be"/><path d="m260.5 336s15.25 2.83 23.38 4.63l-6.54 12.21a47.81 47.81 0 0 1 -19.09-2.84z" fill="#9ab3da"/><path d="m168.95 400.75-.25 21.88h9l.75-21.75z" fill="#ecbdbb"/><path d="m185.83 451.12s-2.1 1.56-4.76 3.4c-.12-1.43-.33-2.77-.74-2.77-.59 0-.79 2.34-.85 3.86-3 2-6.2 4-7.91 4.64-3.62 1.25-24 .13-24 .13s-.26-2.1-.35-4.84c-.14-3.78.06-8.77 1.73-11.16 2.88-4.13 10-4.38 10-4.38s5.38-11.62 5.62-12.88-1.5-7.62-1.5-7.62a58.68 58.68 0 0 1 19.88-.88l-1.5 7.38s2.27 10.21 3.72 20.11c.25 1.7.48 3.38.66 5.01z" fill="#f68d88"/><path d="m165.7 442.43a.43.43 0 0 1 -.3-.12 8.54 8.54 0 0 0 -4.84-1.79.43.43 0 0 1 .09-.85 10.3 10.3 0 0 1 4.89 1.66l6.18-13.75a19.49 19.49 0 0 0 -6-.2.43.43 0 0 1 -.11-.85 20.78 20.78 0 0 1 6.83.32.43.43 0 0 1 .31.6l-6.63 14.75a.43.43 0 0 1 -.31.25h-.11z" fill="#ecbdbb"/><path d="m185.83 451.12s-2.1 1.56-4.76 3.4c-.12-1.43-.33-2.77-.74-2.77-.59 0-.79 2.34-.85 3.86-3 2-6.2 4-7.91 4.64-3.62 1.25-24 .13-24 .13s-.26-2.1-.35-4.84c6 .39 21.48 1.31 23 .71s10.88-7.23 15-10.14c.2 1.7.43 3.38.61 5.01z" fill="#6b81be"/><path d="m172.33 268s-2.67 60.67-4 77-1.72 57.67-1.72 57.67 12.67.67 13-.33 15.72-53 16.39-60 25-62.33 28.67-82-42.67-40.34-52.34 7.66z" fill="#6b81be"/><path d="m177.7 398.3a.43.43 0 0 1 -.38-.47c1.93-17.36 7.6-34.35 9.15-38.76-1.06.56-2.53 1.2-3.26.88a.83.83 0 0 1 -.49-.62c-.25-1.26 2.58-7.1 3.42-8.79-6.24-8.26-5.88-9-5.76-9.24s.52-1 8.93 1.16c11.19-55 17-83.55 17-83.55a.43.43 0 1 1 .84.17s-5.83 28.75-17.08 84a.43.43 0 0 1 -.19.28.43.43 0 0 1 -.34.05 46.72 46.72 0 0 0 -8.3-1.64c.4 1.08 3.13 5 5.75 8.47a.43.43 0 0 1 0 .45c-1.81 3.62-3.6 7.78-3.46 8.47.3.19 2-.48 3.48-1.41a.43.43 0 0 1 .63.52c-.07.2-7.27 19.69-9.49 39.65a.43.43 0 0 1 -.45.38zm3.43-56.72" fill="#9ab3da"/><path d="m162.45 394.25 23.88.38-3 14.63-18.5.38s-1.38-9.26-2.38-15.39z" fill="#9ab3da"/><path d="m146.5 124.17s-10.67 13.5-8.17 31 14 23.17 14 23.17 43.5-11 54.67-11 28.83 3.5 28.83 3.5 5.5-15 5.17-25.83-8-19.5-8.5-19.5-17.83 2.33-33.83 3.33-52.17-4.67-52.17-4.67z" fill="#404b7c"/><path d="m154.5 176.05a.43.43 0 0 1 -.39-.61c5.32-11.32 6.94-20.5 5-28.08-2.14-8.24-9.4-16.41-11.22-18.37-1.27 2.61-6.61 13.92-6.93 20.4-.36 7.27 6.65 18.84 10.2 19.94a.89.89 0 0 0 .88-.21c2.34-1.91 3.41-13.05 2.94-17.71-.5-5-4.92-12.19-6.06-12.5-1 .41-4.33 10.41-4.33 13.21 0 2.27 4.7 7.58 5.91 8.2.78-.71 1.72-7.54 1.12-9.84a9.85 9.85 0 0 0 -1.95-3.56 17.93 17.93 0 0 0 -1.33 5.45.43.43 0 0 1 -.86 0 20.62 20.62 0 0 1 1.66-6.42.43.43 0 0 1 .7-.13 11.11 11.11 0 0 1 2.61 4.44c.54 2.07-.11 9.57-1.41 10.72a.74.74 0 0 1 -.79.16c-1.36-.54-6.52-6.28-6.52-9 0-2.19 2.94-12.52 4.71-13.86a.79.79 0 0 1 .71-.18c1.69.46 6.2 8.33 6.69 13.25.42 4.22-.42 16.15-3.25 18.46a1.74 1.74 0 0 1 -1.68.36c-3.85-1.2-11.19-13.07-10.8-20.81.38-7.5 7-20.74 7.3-21.3a.43.43 0 0 1 .32-.23.42.42 0 0 1 .37.12c.09.09 9.36 9.57 11.86 19.19 2 7.78.38 17.16-5 28.67a.43.43 0 0 1 -.46.24z" fill="#6b81be"/><path d="m162.15 171.5s-3.65 60.61-2.78 70.8 36 12.24 36 12.24v-86.3z" fill="#6b81be"/><path d="m182.63 231.38a50.55 50.55 0 0 0 -3.75 5.13c-.5 1.13-19.5 44.38-19.5 44.38s15 10.25 42.25 5.63 44.63-24.37 57-31.12 20.25-5 20.25-5-19.87-14.12-29.12-20z" fill="#9ab3da"/><path d="m184.83 273.43a.43.43 0 0 1 0-.86 67.25 67.25 0 0 0 36.08-14.73c16.75-13.93 26.19-14.58 26.59-14.6a.43.43 0 0 1 0 .86c-.09 0-9.59.69-26.08 14.4a68.14 68.14 0 0 1 -36.59 14.93z" fill="#6b81be"/><path d="m190.33 258.76a.43.43 0 0 1 -.08-.85c.18 0 18.1-3.75 32-11.62a.43.43 0 1 1 .42.75c-14.06 7.94-32.11 11.68-32.29 11.71h-.09z" fill="#6b81be"/><path d="m226.38 109.69s-2.47-1.06-3.09-1.22a1 1 0 0 0 -1.16 1.34c.44.75 6.09 3.09 6.25 3.22s2.66 2.72 2.75 2.72 3.44.09 3.44 0-8.19-6.06-8.19-6.06z" fill="#ecbdbb"/><path d="m236.38 119.33a40.65 40.65 0 0 1 -5.33-.12c-.83-.25-3.67-3.42-4.08-3.75s-2.71-1.58-2.92-2.12 1.29-1.08 3.13.17a11.36 11.36 0 0 0 3.08 1.58l3.5.5z" fill="#ecbdbb"/><path d="m245.08 135.83-9.42-16.58s-2-.83-2.42-1.58-3-4.67-3-4.67-7.83-3.79-8.29-4.25-.25-2.37 1.92-1.37 9.54 3.29 10.79 4.33 6.38 6.58 6.38 6.58l13.71 13z" fill="#ecbdbb"/><path d="m232.25 141.25 15.92 7.92-3.67-10.5 16.33-2.33s16.83 28.67 17.33 31.83-.5 12.33-2.33 13.67-28.33-1.08-43.08-5.58-21.75-41.26-.5-35.01z" fill="#f68d88"/><path d="m264.38 170.93a.43.43 0 0 1 -.36-.2 191.35 191.35 0 0 0 -14-18.51.43.43 0 0 1 .65-.56 192.21 192.21 0 0 1 14 18.61.43.43 0 0 1 -.14.59.42.42 0 0 1 -.15.07z" fill="#ecbdbb"/><path d="m252 171.93a.43.43 0 0 1 -.43-.43 115.94 115.94 0 0 0 -1.27-13.79c-.21-1.56-.35-2.59-.35-3a.43.43 0 0 1 .86 0c0 .31.15 1.43.34 2.84a116.57 116.57 0 0 1 1.28 13.91.43.43 0 0 1 -.43.47z" fill="#ecbdbb"/><path d="m245.08 145.25s-2.75-6.58-3-7.33 5.58-6.5 9.17-7.67 11 4.17 11.58 4.83a50.08 50.08 0 0 1 2.58 5.58l-1.33 1.25-.83-1.33s-5.75-1.33-8.83-1.17-7.83 5.17-7.83 5.17l.58 1.5z" fill="#f68d88"/><path d="m248.11 143.55a.43.43 0 0 1 -.29-.75c1.86-1.68 4.52-3.7 6.57-3.81a36.58 36.58 0 0 1 7.5.87.43.43 0 1 1 -.17.84 35.3 35.3 0 0 0 -7.28-.85c-1.41.08-3.56 1.35-6 3.59a.43.43 0 0 1 -.33.11z" fill="#ecbdbb"/><path d="m181.38 223.5-1.5 8.75s23.25 9 42.13 8.5 30-9.87 30-9.87l-1.25-8.37c-21.9 9.34-45.11 9.02-69.38.99z" fill="#f68d88"/><path d="m255 215c.25 1.25-4.25 9-4.25 9a115.71 115.71 0 0 1 -18.86 6.54c-1.67.42-3.39.8-5.14 1.12a58 58 0 0 1 -12.25 1.09c-16.5-.5-35.5-8.75-35.5-8.75s3-21 2-30.75-2.5-43.63-2.5-43.63l17.5-11.5c9.75-6 14.5-3 21.62-1.5a95.34 95.34 0 0 1 14.63 4.63s4.5 26 6.5 36.75 9.5 25 9.5 25-.75 4.25-.75 5 7.25 5.75 7.5 7z" fill="#f68d88"/><path d="m215.79 233.2h-1.31c-11.67-.35-24.57-4.56-31.22-7a.43.43 0 0 1 .3-.8c6.6 2.46 19.4 6.63 30.94 7a57.58 57.58 0 0 0 12.16-1.08c1.66-.3 3.38-.68 5.11-1.11a118 118 0 0 0 16.62-5.57.43.43 0 1 1 .33.79 118.91 118.91 0 0 1 -16.72 5.57c-1.75.44-3.49.82-5.17 1.13a60.52 60.52 0 0 1 -11.04 1.07z" fill="#ecbdbb"/><path d="m220.79 136.16a2.08 2.08 0 0 0 -.11 1.9c2.46 5.53 14.77 33.42 21.65 52.11 0 0 .92-10.33.17-15.83s-5.26-24.29-9.32-34a4.5 4.5 0 0 0 -.21-.44 4.36 4.36 0 0 0 -2.35-2l-7.31-2.61a2.09 2.09 0 0 0 -2.52.87z" fill="#9ab3da"/><path d="m204.62 175.43a.43.43 0 0 1 -.42-.37c-1-7.08-3.9-18.84-3.93-19a.43.43 0 1 1 .83-.21c0 .12 2.84 11.47 3.89 18.63l.81-.09c-.38-2-1.93-10-3.22-14.89a.43.43 0 1 1 .83-.22c1.49 5.64 3.3 15.31 3.32 15.41a.43.43 0 0 1 -.37.51l-1.69.19z" fill="#ecbdbb"/><path d="m204.63 175s-.62 7.31-.19 7.75 4.19.19 4.37-.44-2.5-7.5-2.5-7.5z" fill="#9ab3da"/><path d="m225.22 173.05a.43.43 0 0 1 -.42-.36 140.55 140.55 0 0 0 -3.63-15.17.43.43 0 1 1 .82-.25 143.26 143.26 0 0 1 3.59 14.87l.81-.11c-.59-2.64-3.61-16.1-5.53-21.56a.43.43 0 0 1 .81-.29c2.14 6.09 5.63 22 5.66 22.11a.43.43 0 0 1 -.36.52l-1.68.23h-.06z" fill="#ecbdbb"/><path d="m225.22 172.62s-.44 7.33 0 7.75 4.19.08 4.36-.55-2.69-7.43-2.69-7.43z" fill="#9ab3da"/><path d="m231.89 230.54c-1.67.42-3.39.8-5.14 1.12l-6.67-11.16s4-13 3.92-13.25-5.67-6.25-5.67-6.25.75-7.08.67-8.92-4.56-22.73-4.58-23.58c-.08-2.91-.75-7.58 1.42-2.83s6.91 24.91 6.91 26.08-.33 8.08-.33 8.08 6.08 5.25 6.08 5.75-3.92 14.34-3.92 14.34z" fill="#f9d4d4"/><path d="m209.13 221.59a63.61 63.61 0 0 1 -15.07-1.84.43.43 0 0 1 .2-.83c29.61 7.2 48.76-9.24 48.95-9.41a.43.43 0 1 1 .57.64c-.16.15-13.32 11.44-34.65 11.44z" fill="#ecbdbb"/><path d="m205.83 211.26a.43.43 0 0 1 -.05-.85c.19 0 18.87-2.39 29.18-8.12a.43.43 0 0 1 .42.75c-10.45 5.81-29.3 8.19-29.49 8.22h-.05z" fill="#ecbdbb"/><path d="m182.17 150.67s-7.09-10.09-7.17-10.67 4.83-9.58 6.17-10.58 16.5-3.92 23.83-4.33 15.58 2.25 16.33 2.58 4.92 3.17 5.25 5.17.67 18.33.67 18.33z" fill="#f68d88"/><path d="m199.44 148.56a.43.43 0 0 1 -.34-.17c-.42-.55-10.36-13.48-10.95-14.31a.54.54 0 0 1 0-.54c.63-1.39 12.95-4.23 15.85-4.55 3.35-.37 10.49 2.42 13.39 3.64l.14.06c.34.14.7.28.14 13.92a.42.42 0 0 1 -.45.41.43.43 0 0 1 -.41-.45c.19-4.56.4-11.93.21-13.16-5.91-2.47-10.75-3.81-12.94-3.56-3.8.41-13.56 3-15 4 1.43 1.93 10.67 13.93 10.76 14.06a.43.43 0 0 1 -.4.65z" fill="#ecbdbb"/><path d="m194.38 141.25s9-5.12 11.88-5.5 11 2.35 11 2.35l-.54 31.28a.72.72 0 0 1 -1.29.41z" fill="#9ab3da"/><path d="m187.46 140.36a2.93 2.93 0 0 1 2.33 1.56c2.47 4.7 9.63 20.79 5.88 42.92-4.5 26.5-17.67 36.33-17.67 36.33v-17.67s7.17-14.17 7.17-28.17c0-11.62-5.51-22-7.38-25.24a3.16 3.16 0 0 1 -.36-2.24 3.18 3.18 0 0 1 1.22-1.91l6.78-5a3 3 0 0 1 2-.57z" fill="#9ab3da"/><path d="m214.88 184.8a.43.43 0 0 1 -.43-.44c0-.09.12-9.53-.25-14.08a.43.43 0 0 1 .33-.45l2.75-.62a.43.43 0 0 1 .49.25 81.16 81.16 0 0 1 4.28 14 .43.43 0 0 1 -.25.48c-.08 0-2.07.85-6.91.91zm.21-14.22c.29 4.11.25 11.48.23 13.35a22.89 22.89 0 0 0 5.82-.72 81.25 81.25 0 0 0 -4-13.09z" fill="#ecbdbb"/><path d="m214.25 175.13a31.13 31.13 0 0 0 5.25-1.37 49.37 49.37 0 0 1 3.13 10.38 53.14 53.14 0 0 1 -8.69.88s.25-6.58.31-9.89z" fill="#9ab3da"/><path d="m178.5 149.63s-33.37 35.5-41.12 48c0 0 7.88 16.75 13.63 23.88l15.38-9.37-3.87-13.75 20-8.5s7.15-23.22-4.02-40.26z" fill="#f68d88"/><path d="m152.73 199.39a33.71 33.71 0 0 1 -10-1.48.43.43 0 0 1 .25-.82 34.1 34.1 0 0 0 17 .69 2.89 2.89 0 0 1 .49-.08.43.43 0 0 1 0 .86l-.34.07a37 37 0 0 1 -7.4.76z" fill="#ecbdbb"/><path d="m147.38 221.63s3.8-5.63 8.63-7.87a25.25 25.25 0 0 1 12.13-2.31l3.13 8.81s-4.25 5.25-7.75 7.5-12.25 2-12.25 2z" fill="#f68d88"/><path d="m150.69 218.11a.43.43 0 0 1 -.3-.73 19.53 19.53 0 0 1 5.44-4 26.41 26.41 0 0 1 9.6-2.37.43.43 0 1 1 0 .86 25.54 25.54 0 0 0 -9.28 2.29 18.7 18.7 0 0 0 -5.15 3.84.43.43 0 0 1 -.31.11z" fill="#ecbdbb"/><path d="m155.56 225.44s5.37-5.87 11.87-5.87a261.89 261.89 0 0 0 13.19 23.81l-3.87 7a311.9 311.9 0 0 1 -21.19-24.94z" fill="#ecbdbb"/><path d="m181.81 240s-3.69 7.13-9.44 17.63l3.88 3.25s7.75-8.5 11.63-18.87z" fill="#f68d88"/><path d="m192.27 104.08a13.15 13.15 0 0 0 -11.44-2.92c-7.25 1.33-9.25 8.14-4.33 12.32 4.14 3.52 2 7.44-1.84 7.05a2 2 0 0 0 -2.12 2.59c.68 2.28 2.78 4.86 8.88 4.62 10.75-.42 11.42-12.08 4.08-15.17s-3.17-8.5 5.08-5.25z" fill="#404b7c"/><path d="m195.42 103.67s-4.5-1.42-5.67.67-1.17 4.75 4.08 4.58z" fill="#9ab3da"/><path d="m210.67 127.17-.42 6.49-.67 10.26c-6.25 2.16-8.33-1.92-8.33-1.92l1.75-15.2.22-1.88z" fill="#ecbdbb"/><path d="m210.67 127.17-.42 6.49c-4.27-1.19-6.38-4.92-7.22-6.86l.22-1.88z" fill="#404b7c"/><path d="m216.54 107.13a11 11 0 0 1 .13 7.67c-1.42 4.17-4.46-8.12-4.46-8.12z" fill="#404b7c"/><path d="m198.67 112.33a75.19 75.19 0 0 0 3.25 12.17c1.92 4.75 8.5 6.23 11.33 5.31s6.25-13.48 1.83-22.81-18.5-6.08-16.41 5.33z" fill="#ecbdbb"/><path d="m198.17 118.75 4.75-.42a24 24 0 0 1 -.25-6.25c.42-2.25 4-2.75 4.5-5.5s.17-5.83-5.42-4.92-7.67 8.59-3.58 17.09z" fill="#404b7c"/><path d="m217.33 108.17a56.35 56.35 0 0 0 -15.46 3.29 51.61 51.61 0 0 0 -8.29 3.79s-1.25-6.75-.41-10.58 9.83-8.34 15.16-8.09h.34c5.15.73 8.66 11.59 8.66 11.59z" fill="#f68d88"/><path d="m217.33 108.17a56.35 56.35 0 0 0 -15.46 3.29c-.18-3-.4-8.6.13-10.55.43-1.58 3-3.61 6.67-4.3 5.15.7 8.66 11.56 8.66 11.56z" fill="#9ab3da"/><path d="m200.91 111.81a69.71 69.71 0 0 1 7.51-7c2.9-2.05 10.33-3.42 18.17-2.33l-9.25 5.67s-9.54.46-16.43 3.66z" fill="#404b7c"/><path d="m202 119a6.83 6.83 0 0 0 -6.37-5.5 6.56 6.56 0 0 0 -3.26.76c-4.42 2.33-.33 12.08 10.58 9.17z" fill="#ecbdbb"/><g fill="#404b7c"><path d="m201.28 122a.3.3 0 0 1 -.28-.19c-2.58-6.22-7.31-5-7.52-4.92a.3.3 0 0 1 -.16-.58c.06 0 5.45-1.46 8.24 5.27a.3.3 0 0 1 -.16.39z"/><path d="m196.75 121.65h-.08a.3.3 0 0 1 -.21-.37 17.64 17.64 0 0 1 1.6-3.8.3.3 0 0 1 .51.32 17.31 17.31 0 0 0 -1.54 3.65.3.3 0 0 1 -.28.2z"/><path d="m205.26 114.75s1-2.88 3.2-2.09c0 0 .08-1.34.62-1.42s.7 2.32.7 2.32a11.74 11.74 0 0 0 -4.52 1.19z"/><path d="m216.53 114.28s-.32-2.72-1.66-1.74c0 0 .08-1.32-.22-1.33-.69 0-.62 2.34-.62 2.34a3.76 3.76 0 0 1 2.5.73z"/><path d="m212.5 122.34a.3.3 0 0 1 -.14-.57c.45-.23 1.64-1 1.67-1.74s-1.41-3.26-1.82-3.86a.3.3 0 0 1 .5-.34s2 3 1.93 4.22-1.8 2.15-2 2.26a.3.3 0 0 1 -.14.03z"/><path d="m213.67 124.79a10 10 0 0 1 -2.06 1.54c-1.24.66-2.68.88-3.24-1.12a7.88 7.88 0 0 1 -.25-2.29s1.5 1.45 5.55 1.87z"/></g><path d="m211.61 126.33c-1.24.66-2.68.88-3.24-1.12a3.92 3.92 0 0 1 3.24 1.12z" fill="#fff"/><ellipse cx="208.4" cy="117.54" fill="#404b7c" rx="1.15" ry="1.42"/><circle cx="208.65" cy="117.04" fill="#fff" r=".3"/><ellipse cx="215.15" cy="117.54" fill="#404b7c" rx="1.15" ry="1.42"/><circle cx="215.4" cy="117.04" fill="#fff" r=".3"/></svg>