<svg viewBox="0 0 400 300" xmlns="http://www.w3.org/2000/svg" xmlns:xlink="http://www.w3.org/1999/xlink"><linearGradient id="a" gradientUnits="userSpaceOnUse" x1="72.62" x2="90.25" y1="205.58" y2="191.65"><stop offset="0" stop-opacity="0"/><stop offset=".99" stop-color="#1a1a1a"/></linearGradient><linearGradient id="b" x1="272.02" x2="337.9" xlink:href="#a" y1="212.69" y2="170.29"/><linearGradient id="c" x1="152.93" x2="187.82" xlink:href="#a" y1="233.86" y2="184.25"/><linearGradient id="d" gradientUnits="userSpaceOnUse" x1="202.32" x2="201.23" y1="48.03" y2="175.01"><stop offset="0" stop-color="#fff"/><stop offset="1" stop-color="#009486"/></linearGradient><linearGradient id="e" gradientUnits="userSpaceOnUse" x1="186.42" x2="217.21" y1="155.28" y2="155.28"><stop offset="0" stop-color="#fff"/><stop offset=".97" stop-color="#ed1c24"/><stop offset="1" stop-color="#f7931e"/></linearGradient><linearGradient id="f" gradientTransform="matrix(-.77 .63 -.63 -.77 350.76 77.64)" x1="130.8" x2="132.49" xlink:href="#e" y1="104.66" y2="107.67"/><linearGradient id="g" gradientTransform="matrix(-.77417174 .6329756 -.6329756 -.77417174 408.74 60.75)" x1="185.21" x2="188.2" xlink:href="#e" y1="53.05" y2="58.39"/><linearGradient id="h" gradientTransform="matrix(-.77 .63 -.63 -.77 397.02 103.81)" x1="196.43" x2="199.66" xlink:href="#e" y1="107.17" y2="112.94"/><linearGradient id="i" gradientTransform="matrix(-.77 .63 -.63 -.77 375.04 48.94)" x1="141.4" x2="143.76" xlink:href="#e" y1="59.11" y2="63.33"/><linearGradient id="j" gradientTransform="matrix(-.77 .63 -.63 -.77 382.99 75.52)" x1="164.81" x2="169.4" xlink:href="#e" y1="83.43" y2="91.62"/><path d="m50.36 172.94 137.22-78.09a22 22 0 0 1 22 .11l141.38 82.35a12.23 12.23 0 0 1 -.06 21.17l-131.99 75.78a29.48 29.48 0 0 1 -29.39 0l-139.21-80.09a12.23 12.23 0 0 1 .05-21.23z" fill="#f4f4f4"/><path d="m80.46 210.93 23.46-13.93-16.44-11.36-27.25 13.59c6.49 4.01 13.94 7.42 20.23 11.7z" fill="url(#a)" opacity=".32"/><path d="m88.65 173.85 103.35-58.85a16.58 16.58 0 0 1 16.54.08l106.51 62a9.21 9.21 0 0 1 0 16l-99.4 57.08a22.21 22.21 0 0 1 -22.14 0l-104.9-60.32a9.21 9.21 0 0 1 .04-15.99z" fill="none" stroke="#e6e6e6" stroke-miterlimit="10"/><path d="m347.17 186.06-78.18 46.47-28.8-21.08 86.55-52.12" fill="url(#b)" opacity=".32"/><path d="m270.47 187.66-113.86 66.22-72.62-42.92 113.96-70.84" fill="url(#c)" opacity=".32"/><path d="m130.24 154.43v27.1h143.03v-25.9" fill="#e6e6e6"/><path d="m273.27 155.83c0-.07 0-.13 0-.2v-82.31a5.54 5.54 0 0 0 -2.77-4.95l-64.65-37.65a10.06 10.06 0 0 0 -10-.05l-62.78 35.7a5.52 5.52 0 0 0 -2.8 4.39v83.67a5.52 5.52 0 0 0 2.76 4.16l63.65 36.61a13.48 13.48 0 0 0 13.44 0l60.33-34.65a5.53 5.53 0 0 0 2.8-4.74z" fill="url(#d)" opacity=".42"/><path d="m133.07 176 62.74-35.71a10.06 10.06 0 0 1 10 .05l64.69 37.66a5.59 5.59 0 0 1 0 9.68l-60.36 34.62a13.48 13.48 0 0 1 -13.44 0l-63.7-36.61a5.59 5.59 0 0 1 .07-9.69z" fill="#e6e6e6"/><path d="m133.07 148.88 62.74-35.71a10.06 10.06 0 0 1 10 .05l64.65 37.65a5.59 5.59 0 0 1 0 9.68l-60.33 34.65a13.48 13.48 0 0 1 -13.44 0l-63.69-36.61a5.59 5.59 0 0 1 .07-9.71z" fill="#68e1fd"/><ellipse cx="201.82" cy="155.28" fill="url(#e)" opacity=".7" rx="15.39" ry="4.31"/><path d="m181.76 78.66 8.85 18.34 6.24 13c.8 1.67 1.45 4 2.61 5.41 1 1.25 2.85 2.2 4.12 3.16l11.33 8.5 16.78 12.59c.77.58 1.52-.72.76-1.3l-16-12-11-8.24c-1.18-.88-4.53-3.25-4.76-3.55-1.33-1.75-2.11-4.39-3.06-6.36l-6-12.39-8.57-17.92c-.42-.87-1.71-.11-1.3.76z" fill="#fff"/><circle cx="182.78" cy="79.21" fill="#f15a24" r="3.34" transform="matrix(.67494655 -.73786662 .73786662 .67494655 .96 160.61)"/><circle cx="182.78" cy="79.21" fill="url(#f)" opacity=".7" r="3.34" transform="matrix(.67494655 -.73786662 .73786662 .67494655 .96 160.61)"/><circle cx="230.94" cy="136.58" fill="#f15a24" r="5.94" transform="matrix(.67494655 -.73786662 .73786662 .67494655 -25.71 214.79)"/><circle cx="230.94" cy="136.58" fill="url(#g)" opacity=".7" r="5.94" transform="matrix(.67494655 -.73786662 .73786662 .67494655 -25.71 214.79)"/><path d="m225.46 92.51-14.84 12.61c-3.78 3.21-8.09 6.23-11.45 9.89-8.79 9.57-16.4 20.51-24.51 30.66-.6.75.46 1.81 1.06 1.06 8.11-10.15 15.73-21.09 24.51-30.66 3.36-3.66 7.67-6.68 11.45-9.89l14.84-12.61c.74-.63-.33-1.68-1.06-1.06z" fill="#fff"/><circle cx="176.21" cy="144.8" fill="#f15a24" r="6.42" transform="matrix(.67494655 -.73786662 .73786662 .67494655 -49.57 177.08)"/><circle cx="176.21" cy="144.8" fill="url(#h)" opacity=".7" r="6.42" transform="matrix(.67494655 -.73786662 .73786662 .67494655 -49.57 177.08)"/><circle cx="227.49" cy="92.42" fill="#f15a24" r="4.69" transform="matrix(.67494655 -.73786662 .73786662 .67494655 5.75 197.89)"/><circle cx="227.49" cy="92.42" fill="url(#i)" opacity=".7" r="4.69" transform="matrix(.67494655 -.73786662 .73786662 .67494655 5.75 197.89)"/><circle cx="201.31" cy="114.73" fill="#f15a24" r="9.11" transform="matrix(.67494655 -.73786662 .73786662 .67494655 -19.22 185.83)"/><circle cx="201.31" cy="114.73" fill="url(#j)" opacity=".7" r="9.11" transform="matrix(.67494655 -.73786662 .73786662 .67494655 -19.22 185.83)"/><ellipse cx="265.86" cy="178.06" fill="#ff7f5c" rx="2.46" ry="1.85" transform="matrix(.33413588 -.94252491 .94252491 .33413588 9.19 369.12)"/><ellipse cx="259.7" cy="181.75" fill="#ff7f5c" rx="2.46" ry="1.85" transform="matrix(.33413588 -.94252491 .94252491 .33413588 1.61 365.78)"/><path d="m216.4 206 36.33-20.32" fill="#ff7f5c"/><path d="m217.16 207.3 36.33-20.3c1.69-.94.17-3.53-1.51-2.59l-36.33 20.32c-1.69.94-.17 3.53 1.51 2.59z" fill="#ccc"/><g fill="none"><path d="m98.21 131.05v-.13" stroke="#61587d"/><path d="m94.51 131.05v-.13" stroke="#61587d"/><path d="m87.1 130.92v.13" stroke="#61587d"/><path d="m90.8 131.05v-.13" stroke="#61587d"/><path d="m83.39 130.92v.13" stroke="#61587d"/></g><path d="m96.48 92.43a87.3 87.3 0 0 1 7.44 17.5s-1.54 6.24-3.27 12.26" fill="#003c4f"/><path d="m96.2 181.36c-.1.44-1.23 5.54 0 7.2s3.44 2.74 5.13 4.18c.88.75 4.19 5.21 1.64 5.69-1.77.33-7.09-1.33-10.42-3.77s-5.64-2.91-5.77-4.19 2-11.61 2-11.61" fill="#363942"/><path d="m95.47 185.47c.16-2.29.28-4.85.29-6.18a19.92 19.92 0 0 0 -.29 6.18z" fill="#363942"/><path d="m85 188s.3 4.79 1 6.08 3.57 6.66 2.07 8.45-8.05-2-9-5.36-1.79-3.69-2.09-5.08 1.1-8.67 1.1-8.67" fill="#363942"/><path d="m100.94 125.92s-2.94 57.18-4.64 58.43-6.36 1.71-9.39-.54l3.38-24.39-4.3 31s-8.5 1.38-11.13-1.85c-.74-.91 6.69-62.13 6.69-62.13" fill="#ff7f5c"/><path d="m100.65 122.19q-.31-5.36-.67-10.71c-.37-5.36.27-16.79-4.75-20.18-2.74-1.85-7.21-.94-9.85.45-6 3.18-11.25 16.32-11.86 21.55a5.29 5.29 0 0 0 .1 1.66c2.65 1 5.68 1 7.13 3.88 1.15 2.31.88 5 .8 7.64l.62.59c11.57 5.72 18.75 0 18.76 0 .42-.34-.25-4.36-.28-4.88z" fill="#68e1fd"/><path d="m87.29 86.34-.41 5.36s3.66 3.75 7.28 3.23l-1.73-7.52" fill="#fcbb5b"/><path d="m87.29 86.34-.13 2.93s3.81 2.81 5.95.64-5.82-3.57-5.82-3.57z" fill="#db9231"/><path d="m85.46 84.88c0-.14-1.88-1.93-1.84-3.17a2.2 2.2 0 0 1 .92-1.78s-1.13-2.77 1.35-3.55 8-2.15 9.09-.83.91 4-1 4.83-6.24 1.16-6.24 1.16 1.25 3.39-2.33 3.33" fill="#363942"/><path d="m93.91 79.16s4.23 8.73.79 10.41-7.41-3.23-7.41-3.23-2.82-1.34-1.59-2.24 1.68-.18 1.68-.18-2.29-2.65-.88-3.09 6.17.62 7.41-1.67z" fill="#fbc76f"/><circle cx="94.7" cy="82.07" fill="none" r="1.59" stroke="#42210b" stroke-miterlimit="10" stroke-width=".25"/><circle cx="90.35" cy="83.12" fill="none" r="1.76" stroke="#42210b" stroke-miterlimit="10" stroke-width=".25"/><path d="m87.16 83.65 1.43-.18" fill="none" stroke="#42210b" stroke-miterlimit="10" stroke-width=".25"/><path d="m92.07 82.75 1.09-.3" fill="none" stroke="#42210b" stroke-miterlimit="10" stroke-width=".25"/><path d="m92.76 83.35s1.57 1.1.31 1.76" fill="none" stroke="#42210b" stroke-miterlimit="10" stroke-width=".25"/><path d="m73.52 113.3s-.73 6.18 4.84 6.83 19.49-7.71 19.49-7.71-.72-4.11-2.22-5.57-12.9 1.46-12.9 1.46" fill="#68e1fd"/><path d="m91.5 133.62a485.5 485.5 0 0 1 -5.5 51.48c-.09.54.73.77.82.23a487.65 487.65 0 0 0 5.54-51.71c.02-.54-.83-.54-.86 0z" fill="#363942"/><path d="m95 105.66a.43.43 0 0 0 -.52-.3l-13.12 3.92a.43.43 0 0 0 .23.82l12.68-3.79q.84 3.84 1.43 7.73c.08.54.9.31.82-.23q-.66-4.1-1.52-8.15z" fill="#003c4f"/><path d="m96.48 113.82-15.73 5.01.87 5.19z" fill="#003c4f"/><path d="m97.42 113.3 4.5-15.05 12.69-6.79-5.02 16.31z" fill="#ff7f5c"/><path d="m106.47 103.19c-.37-.81-6.09 1.35-6.09 1.35s1.38-3 .57-3.57-2.32 2.4-2.32 2.4l-3.18 4.57-.55.35a28.51 28.51 0 0 0 .75 3.75c1.77-.13 5-2 5.43-2.11a22.48 22.48 0 0 0 4.33-2.66c.72-.74 1.43-3.27 1.06-4.08z" fill="#fbc76f"/><path d="m86.88 90.2s1.91 1.8 3.12 1.9l2 1.05 1.6 1.66v-2.31s-.47-2.08-.4-2.06 1.73 2.67 1.73 2.67l1.59 2.66-2.32-.23-1 1.7s-5.76-2.57-7.78-5.49z" fill="#fff"/><path d="m301.96 105.69 13.31-7.07 31.9 18.41v69.03l-13.15 7.59" fill="#ea6a4b"/><path d="m334 193.65c-1-.08 0-69.46 0-69.46l-32-18.5v70z" fill="#ff7f5c"/><path d="m301.96 118.74 31.91 17.95 13.3-6.77" fill="none" stroke="#f2f2f2" stroke-miterlimit="10" stroke-width=".25"/><path d="m301.96 136.69 31.91 17.96 13.3-6.78" fill="none" stroke="#f2f2f2" stroke-miterlimit="10" stroke-width=".25"/><path d="m301.96 152.85 31.91 17.96 13.3-6.78" fill="none" stroke="#f2f2f2" stroke-miterlimit="10" stroke-width=".25"/><path d="m301.96 169.16 31.91 17.95 13.3-6.77" fill="none" stroke="#f2f2f2" stroke-miterlimit="10" stroke-width=".25"/><path d="m334.02 124.19 13.15-7.16-31.9-18.41-13.31 7.07z" fill="#ff886c"/><ellipse cx="327.98" cy="126.48" fill="#fff" rx="1.94" ry="2.34" transform="matrix(.92534212 -.37913318 .37913318 .92534212 -23.47 133.81)"/><path d="m305.84 115.15 17 9.37c.42.23.8-.41.38-.65l-17-9.37c-.42-.23-.8.41-.38.65z" fill="#f2f2f2"/><ellipse cx="327.98" cy="142.18" fill="#fff" rx="1.94" ry="2.34" transform="matrix(.92534212 -.37913318 .37913318 .92534212 -29.42 134.98)"/><path d="m305.84 130.84 17 9.37c.42.23.8-.41.38-.65l-17-9.37c-.42-.23-.8.41-.38.65z" fill="#f2f2f2"/><ellipse cx="327.98" cy="159.33" fill="#fff" rx="1.94" ry="2.34" transform="matrix(.92534212 -.37913318 .37913318 .92534212 -35.92 136.26)"/><path d="m305.84 148 17 9.37c.42.23.8-.41.38-.65l-17-9.37c-.42-.23-.8.41-.38.65z" fill="#f2f2f2"/><ellipse cx="327.98" cy="174.91" fill="#fff" rx="1.94" ry="2.34" transform="matrix(.92534212 -.37913318 .37913318 .92534212 -41.83 137.43)"/><path d="m305.84 163.57 17 9.37c.42.23.8-.41.38-.65l-17-9.37c-.42-.23-.8.41-.38.65z" fill="#f2f2f2"/></svg>